<?xml version="1.0" encoding="utf-8"?>
<!-- Generator: Adobe Illustrator 15.1.0, SVG Export Plug-In . SVG Version: 6.00 Build 0)  -->
<!DOCTYPE svg PUBLIC "-//W3C//DTD SVG 1.1//EN" "http://www.w3.org/Graphics/SVG/1.1/DTD/svg11.dtd">
<svg version="1.1" id="圖層_1" xmlns="http://www.w3.org/2000/svg" xmlns:xlink="http://www.w3.org/1999/xlink" x="0px" y="0px"
	 width="69.604px" height="83.122px" viewBox="0 0 69.604 83.122" enable-background="new 0 0 69.604 83.122" xml:space="preserve">
<g>
	<defs>
		<rect id="SVGID_1_" width="69.605" height="83.122"/>
	</defs>
	<clipPath id="SVGID_2_">
		<use xlink:href="#SVGID_1_"  overflow="visible"/>
	</clipPath>
	<path clip-path="url(#SVGID_2_)" fill="#292929" d="M17.675,17.455c-7.845,8.787-6.143,18.29-4.52,21.515
		c0.409-2.694-0.394-13.087,8.462-19.128c12.502-8.528,27.59-2.09,27.59-2.09C41.897,12.718,28.228,5.636,17.675,17.455"/>
	<path clip-path="url(#SVGID_2_)" fill="#292929" d="M69.205,25.641c-0.544-2.121-2.311-2.369-3.818-1.095
		c-1.509,1.273-4.443,3.634-11.487,7.088c-5.12,2.509-10.019,2.97-12.315,3.035c0.816-4.091-0.235-6.999-0.235-6.999
		s-3.214-0.373-7.075-2.203c-4.896-2.322-7.07-5.067-7.07-5.067c-8.472,0.736-12.678,11.745-10.245,19.616
		c-0.508,0.58-2.256,2.161-6.457,2.622c-4.07,0.446-6.384-0.722-6.384-0.722s0.011-1.021-1.279-1.278
		c-1.207-0.242-3.298,2.824-2.554,5.303c0,0,2.773,0.97,3.732-2.554c0,0,3.466,1.119,6.868,0.802
		c3.134-0.293,5.276-1.741,6.487-3.028c0.89,2.162,2.333,4.012,4.394,5.228c1.331,0.786,3.222,1.289,5.297,1.329l-4.283,10.897
		c0,0-1.018,0.253-1.472,1.786c-0.269,0.91-0.39,1.909,2.644,2.272c2.187,0.262,3.841-0.62,3.841-0.62s0.084-2.845-3.93-2.947
		l4.489-11.429c2.68-0.2,5.53-1.2,7.839-3.378c0.011,0.16,0.094,0.323,0.263,0.484l0.575,0.47c0,0,1.937,0.049,9.454,1.824
		c7.517,1.775,12.354,6.135,12.354,6.135s0.748,0.13,1.15-0.692c0.4-0.823,0.695-3.511-4.979-6.724
		c-5.675-3.213-12.389-2.943-15.134-2.9c-1.177,0.018-2.143,0.204-2.793,0.481c0.514-0.58,0.976-1.158,1.389-1.733
		c13.334,1.214,21.729-0.588,26.848-4.425C70.737,33.155,69.655,27.388,69.205,25.641 M33.945,28.974
		c0,0.764-0.56,1.384-1.249,1.384c-0.69,0-1.249-0.62-1.249-1.384c0-0.625,0.377-1.147,0.891-1.318
		c0.494,0.241,0.984,0.477,1.468,0.698C33.893,28.542,33.945,28.75,33.945,28.974 M22.308,40.995
		c-1.857-1.633-3.723-4.828-3.109-9.475c0.417-3.162,2.109-6.967,5.253-8.962c1.834,1.455,4.06,3.061,6.319,4.297
		c-0.875,0.468-1.597,1.235-1.989,2.23c-0.877,2.225,0.215,4.741,2.441,5.618c2.226,0.877,4.742-0.216,5.619-2.441
		c0.352-0.893,0.382-1.83,0.154-2.691c1.144,0.333,2.368,0.568,3.767,0.653c0.08,1.333,0.304,2.644-0.206,4.451
		c-0.214-0.005-0.331-0.013-0.331-0.013c-0.368,1.801-1.581,3.439-3.207,3.198c-1.822-0.269-3.899,0.708-3.623,1.993
		c0.229,1.07,1.279,1.371,2.447,1.521c-2.415,1.558-5.373,2.092-7.213,2.092C26.405,43.466,24.231,42.688,22.308,40.995"/>
	<path clip-path="url(#SVGID_2_)" fill="#292929" d="M32.212,9.103c0,0,0.697-2.432,3.464-4.729
		c2.766-2.296,7.442-2.344,7.442-2.344s-3.735-2.406-7.878-0.406C30.722,3.808,32.212,9.103,32.212,9.103"/>
	<path clip-path="url(#SVGID_2_)" fill="#292929" d="M26.314,9.987c0,0-0.062-2.127,2.069-5.248
		c2.281-3.341,6.384-4.675,6.384-4.675c-4.614-0.342-7.81,0.655-9.208,3.537C24.164,6.483,26.314,9.987,26.314,9.987"/>
	<path clip-path="url(#SVGID_2_)" fill="#292929" d="M25.825,0.85c-2.651,0.03-6.072,1.802-7.118,4.872
		c-1.046,3.071,2.209,6.527,2.209,6.527C19.62,4.748,25.825,0.85,25.825,0.85"/>
	<path clip-path="url(#SVGID_2_)" fill="#292929" d="M15.808,15.782c-2.412-6.555,1.962-11.984,1.962-11.984
		c-7.198,3.421-5.814,7.583-5.036,9.455C13.511,15.126,15.808,15.782,15.808,15.782"/>
	<path clip-path="url(#SVGID_2_)" fill="#292929" d="M12.761,21.383c-4.227-4.8-1.964-12.475-1.964-12.475
		c-4.1,3.174-3.871,7.431-2.603,9.771C9.46,21.019,12.761,21.383,12.761,21.383"/>
	<path clip-path="url(#SVGID_2_)" fill="#292929" d="M11.108,27.322c0,0-2.876-2.106-4.304-4.889
		c-1.426-2.781-1.378-6.366-1.378-6.366c-1.281,1.567-2.83,6.633-0.397,9.283C7.461,28,11.108,27.322,11.108,27.322"/>
	<path clip-path="url(#SVGID_2_)" fill="#292929" d="M5.229,33.275c2.149,1.385,5.272,0.19,5.272,0.19
		c-6.897-3.31-7.663-9.724-7.663-9.724c-0.012,0.028-0.025,0.057-0.037,0.086C0.882,28.358,3.093,31.899,5.229,33.275"/>
	<path clip-path="url(#SVGID_2_)" fill="#292929" d="M6.285,40.622c3.681,1.012,5.888-1.361,5.888-1.361
		c-6.556-0.322-10.197-6.287-10.197-6.287C1.67,34.226,2.233,39.51,6.285,40.622"/>
	<path clip-path="url(#SVGID_2_)" fill="#292929" d="M15.702,63.979c-0.549-0.747-1.275-1.349-2.161-1.791
		c-0.886-0.44-1.915-0.665-3.061-0.665H3.488L0,77.936h7.121c1.139,0,2.251-0.217,3.306-0.645c1.049-0.426,2.011-1.016,2.859-1.751
		c0.847-0.736,1.577-1.604,2.17-2.581c0.595-0.979,1.017-2.045,1.255-3.166c0.236-1.111,0.266-2.181,0.088-3.179
		C16.619,65.613,16.25,64.727,15.702,63.979 M9.079,64.543c0.785,0,1.47,0.133,2.032,0.396c0.556,0.26,1,0.619,1.321,1.067
		c0.323,0.453,0.535,0.99,0.629,1.599c0.096,0.616,0.063,1.282-0.098,1.979c-0.171,0.743-0.445,1.435-0.814,2.056
		c-0.369,0.62-0.826,1.166-1.358,1.624c-0.529,0.454-1.14,0.815-1.815,1.072c-0.672,0.256-1.41,0.385-2.19,0.385H4.435L6.6,64.543
		H9.079z"/>
	<path clip-path="url(#SVGID_2_)" fill="#292929" d="M27.541,77.936l2.557-12.025h-3.531l-1.791,8.426
		c-0.737,0.543-1.534,0.818-2.371,0.818c-0.257,0-0.498-0.043-0.716-0.127c-0.208-0.081-0.373-0.199-0.504-0.363
		c-0.133-0.162-0.227-0.378-0.28-0.638c-0.053-0.268-0.041-0.588,0.036-0.953l1.523-7.163h-3.529l-1.525,7.173
		c-0.184,0.868-0.213,1.634-0.085,2.276c0.129,0.655,0.383,1.201,0.754,1.623c0.367,0.419,0.834,0.733,1.388,0.934
		c0.537,0.196,1.127,0.296,1.752,0.296c0.274,0,0.572-0.028,0.886-0.084c0.318-0.056,0.633-0.136,0.94-0.237
		c0.308-0.102,0.611-0.228,0.904-0.372c0.058-0.029,0.114-0.06,0.17-0.09l-0.107,0.507H27.541z"/>
	<path clip-path="url(#SVGID_2_)" fill="#292929" d="M31.376,76.413c0.469,0.565,1.077,1.017,1.808,1.339
		c0.725,0.318,1.543,0.479,2.428,0.479c0.948,0,1.904-0.179,2.842-0.533c0.939-0.354,1.799-0.879,2.557-1.56l0.215-0.193
		l-2.008-2.478l-0.238,0.269c-0.346,0.392-0.771,0.717-1.262,0.968c-0.846,0.431-1.857,0.504-2.6,0.127
		c-0.32-0.161-0.586-0.381-0.786-0.65c-0.202-0.271-0.343-0.6-0.42-0.976c-0.076-0.377-0.068-0.787,0.024-1.22
		c0.092-0.438,0.263-0.856,0.507-1.244c0.247-0.394,0.546-0.738,0.889-1.024c0.345-0.289,0.725-0.522,1.13-0.695
		c0.936-0.393,1.943-0.302,2.498,0.072c0.329,0.222,0.593,0.506,0.784,0.844l0.178,0.317l2.873-2.365l-0.163-0.231
		c-0.487-0.689-1.13-1.21-1.911-1.546c-1.51-0.649-3.453-0.667-5.183-0.015c-0.846,0.318-1.622,0.764-2.308,1.322
		c-0.684,0.555-1.28,1.222-1.772,1.976c-0.494,0.759-0.839,1.588-1.025,2.464c-0.191,0.895-0.2,1.741-0.027,2.521
		C30.58,75.161,30.907,75.845,31.376,76.413"/>
	<polygon clip-path="url(#SVGID_2_)" fill="#292929" points="45.292,77.936 46.285,73.261 49.571,77.936 53.774,77.936 
		49.381,71.805 55.717,65.91 51.43,65.91 46.943,70.16 48.9,60.952 45.311,60.952 41.701,77.936 	"/>
	<path clip-path="url(#SVGID_2_)" fill="#292929" d="M65.719,65.494l-4.16,6.84l-1.048-5.629l-0.246-1.211H56.57l2.116,11.59
		c-0.609,0.994-1.112,1.69-1.496,2.07c-0.335,0.331-0.733,0.491-1.216,0.491h-1.649l-0.738,3.477h1.906
		c1.302,0,2.447-0.368,3.406-1.096c0.925-0.703,1.973-2.055,3.2-4.126l7.505-12.406H65.719z"/>
</g>
</svg>
